<svg width="28" height="28" viewBox="0 0 28 28" fill="none" xmlns="http://www.w3.org/2000/svg">
<path d="M14 3.5C22.0294 3.5 24.5 5.42157 24.5 11.6667C24.5 16.028 23.2951 18.2807 19.8333 19.2429V24.5L15.1522 19.8189C14.7815 19.8286 14.3976 19.8333 14 19.8333C5.97059 19.8333 3.5 17.9118 3.5 11.6667C3.5 5.42157 5.97059 3.5 14 3.5Z" fill="white"/>
<path d="M14 3.5C22.0294 3.5 24.5 5.42157 24.5 11.6667C24.5 16.028 23.2951 18.2807 19.8333 19.2429V24.5L15.1522 19.8189C14.7815 19.8286 14.3976 19.8333 14 19.8333C5.97059 19.8333 3.5 17.9118 3.5 11.6667C3.5 5.42157 5.97059 3.5 14 3.5Z" stroke="white" stroke-width="1.5" stroke-linecap="round" stroke-linejoin="round"/>
</svg>
